<svg width="68" height="56" viewBox="0 0 68 56" fill="none" xmlns="http://www.w3.org/2000/svg">
<path d="M65.7455 40.728C66.3002 40.728 66.7269 40.984 67.0255 41.496C67.3669 42.008 67.5375 42.712 67.5375 43.608C67.5375 45.272 67.1322 46.5947 66.3215 47.576C64.2735 50.0507 62.2042 51.9707 60.1135 53.336C58.0229 54.6587 55.5482 55.32 52.6895 55.32C49.5322 55.32 46.9509 54.4027 44.9455 52.568C42.9402 50.6907 41.0629 47.7893 39.3135 43.864C38.0335 41.048 36.9669 38.9573 36.1135 37.592C35.3029 36.184 34.4922 35.2027 33.6815 34.648C32.8709 34.0507 31.8469 33.688 30.6095 33.56L29.9055 38.296C29.0095 44.3973 27.2602 48.792 24.6575 51.48C22.0975 54.168 18.5562 55.512 14.0335 55.512C11.0895 55.512 8.46554 54.808 6.16154 53.4C3.90021 51.9493 2.32154 50.1147 1.42554 47.896C1.12687 47.128 0.977539 46.296 0.977539 45.4C0.977539 44.12 1.27621 43.0107 1.87354 42.072C2.47087 41.1333 3.23887 40.664 4.17754 40.664C4.73221 40.664 5.20154 40.8133 5.58554 41.112C5.96954 41.368 6.33221 41.8373 6.67354 42.52C7.99621 44.9947 9.14821 46.7227 10.1295 47.704C11.1535 48.6853 12.4122 49.176 13.9055 49.176C15.6122 49.176 17.0629 48.408 18.2575 46.872C19.4949 45.2933 20.3695 42.8827 20.8815 39.64L21.7775 33.56H20.7535C19.7722 33.56 19.0042 33.2827 18.4495 32.728C17.8949 32.1733 17.6175 31.4053 17.6175 30.424C17.6175 29.3147 17.8949 28.44 18.4495 27.8C19.0469 27.1173 19.7722 26.776 20.6255 26.776H22.7375C23.0362 24.6853 23.2495 23.2347 23.3775 22.424L25.3615 8.02399C24.2522 7.89599 23.2069 7.83199 22.2255 7.83199C18.5989 7.83199 15.8469 8.47199 13.9695 9.752C12.0922 10.9893 11.1535 12.7813 11.1535 15.128C11.1535 16.1947 11.2602 17.0693 11.4735 17.752C11.7295 18.392 12.0495 19.1173 12.4335 19.928C12.6042 20.2693 12.6895 20.6533 12.6895 21.08C12.6895 22.0187 12.2415 22.8507 11.3455 23.576C10.4922 24.2587 9.53221 24.6 8.46554 24.6C7.10021 24.6 6.09754 24.0027 5.45754 22.808C4.17754 20.5467 3.53754 18.1147 3.53754 15.512C3.53754 12.824 4.26287 10.3707 5.71354 8.15199C7.20687 5.93333 9.44687 4.16266 12.4335 2.83999C15.4202 1.47466 19.1109 0.791992 23.5055 0.791992C25.4255 0.791992 27.1749 0.898659 28.7535 1.11199C30.3749 1.32533 32.1455 1.73066 34.0655 2.328C36.1562 2.96799 37.2015 4.16266 37.2015 5.91199C37.2015 8.25866 36.1989 9.432 34.1935 9.432L31.6975 26.648C36.6895 26.136 40.7429 24.0027 43.8575 20.248C47.0149 16.4507 49.6389 11.3093 51.7295 4.82399C52.1135 3.62933 52.7535 2.71199 53.6495 2.07199C54.5882 1.43199 55.7615 1.11199 57.1695 1.11199C58.3642 1.11199 59.2815 1.38933 59.9215 1.94399C60.6042 2.45599 60.9455 3.20266 60.9455 4.18399C60.9455 4.48266 60.8602 4.97333 60.6895 5.65599C58.5562 12.696 55.5055 18.2853 51.5375 22.424C47.5695 26.5627 43.2389 29.3147 38.5455 30.68C40.1669 31.064 41.4895 31.64 42.5135 32.408C43.5802 33.176 44.4762 34.136 45.2015 35.288C45.9269 36.3973 46.7589 37.9547 47.6975 39.96C49.0202 42.776 50.2575 44.7813 51.4095 45.976C52.5615 47.128 53.9055 47.704 55.4415 47.704C56.8069 47.704 58.1082 47.256 59.3455 46.36C60.5829 45.4213 62.1402 43.8427 64.0175 41.624C64.5295 41.0267 65.1055 40.728 65.7455 40.728Z" fill="black"/>
</svg>
