<svg width="285" height="62" viewBox="0 0 285 62" fill="none" xmlns="http://www.w3.org/2000/svg">
<path d="M64.7758 46.728C65.3304 46.728 65.7571 46.984 66.0558 47.496C66.3971 48.008 66.5678 48.712 66.5678 49.608C66.5678 51.272 66.1624 52.5947 65.3518 53.576C63.3038 56.0507 61.2344 57.9707 59.1438 59.336C57.0531 60.6587 54.5784 61.32 51.7198 61.32C48.5624 61.32 45.9811 60.4027 43.9758 58.568C41.9704 56.6907 40.0931 53.7893 38.3438 49.864C37.0638 47.048 35.9971 44.9573 35.1438 43.592C34.3331 42.184 33.5224 41.2027 32.7118 40.648C31.9011 40.0507 30.8771 39.688 29.6398 39.56L28.9358 44.296C28.0398 50.3973 26.2904 54.792 23.6878 57.48C21.1278 60.168 17.5864 61.512 13.0638 61.512C10.1198 61.512 7.49575 60.808 5.19175 59.4C2.93042 57.9493 1.35175 56.1147 0.45575 53.896C0.157083 53.128 0.00775003 52.296 0.00775003 51.4C0.00775003 50.12 0.306417 49.0107 0.90375 48.072C1.50108 47.1333 2.26908 46.664 3.20775 46.664C3.76242 46.664 4.23175 46.8133 4.61575 47.112C4.99975 47.368 5.36242 47.8373 5.70375 48.52C7.02642 50.9947 8.17842 52.7227 9.15975 53.704C10.1838 54.6853 11.4424 55.176 12.9358 55.176C14.6424 55.176 16.0931 54.408 17.2878 52.872C18.5251 51.2933 19.3998 48.8827 19.9118 45.64L20.8078 39.56H19.7838C18.8024 39.56 18.0344 39.2827 17.4798 38.728C16.9251 38.1733 16.6478 37.4053 16.6478 36.424C16.6478 35.3147 16.9251 34.44 17.4798 33.8C18.0771 33.1173 18.8024 32.776 19.6558 32.776H21.7678C22.0664 30.6853 22.2798 29.2347 22.4078 28.424L24.3918 14.024C23.2824 13.896 22.2371 13.832 21.2558 13.832C17.6291 13.832 14.8771 14.472 12.9998 15.752C11.1224 16.9893 10.1838 18.7813 10.1838 21.128C10.1838 22.1947 10.2904 23.0693 10.5038 23.752C10.7598 24.392 11.0798 25.1173 11.4638 25.928C11.6344 26.2693 11.7198 26.6533 11.7198 27.08C11.7198 28.0187 11.2718 28.8507 10.3758 29.576C9.52242 30.2587 8.56242 30.6 7.49575 30.6C6.13042 30.6 5.12775 30.0027 4.48775 28.808C3.20775 26.5467 2.56775 24.1147 2.56775 21.512C2.56775 18.824 3.29308 16.3707 4.74375 14.152C6.23708 11.9333 8.47708 10.1627 11.4638 8.84C14.4504 7.47466 18.1411 6.792 22.5358 6.792C24.4558 6.792 26.2051 6.89866 27.7838 7.112C29.4051 7.32533 31.1758 7.73067 33.0958 8.328C35.1864 8.968 36.2318 10.1627 36.2318 11.912C36.2318 14.2587 35.2291 15.432 33.2238 15.432L30.7278 32.648C35.7198 32.136 39.7731 30.0027 42.8878 26.248C46.0451 22.4507 48.6691 17.3093 50.7598 10.824C51.1438 9.62933 51.7838 8.712 52.6798 8.072C53.6184 7.432 54.7918 7.112 56.1998 7.112C57.3944 7.112 58.3118 7.38933 58.9518 7.944C59.6344 8.456 59.9758 9.20266 59.9758 10.184C59.9758 10.4827 59.8904 10.9733 59.7198 11.656C57.5864 18.696 54.5358 24.2853 50.5678 28.424C46.5998 32.5627 42.2691 35.3147 37.5758 36.68C39.1971 37.064 40.5198 37.64 41.5438 38.408C42.6104 39.176 43.5064 40.136 44.2318 41.288C44.9571 42.3973 45.7891 43.9547 46.7278 45.96C48.0504 48.776 49.2878 50.7813 50.4398 51.976C51.5918 53.128 52.9358 53.704 54.4718 53.704C55.8371 53.704 57.1384 53.256 58.3758 52.36C59.6131 51.4213 61.1704 49.8427 63.0478 47.624C63.5598 47.0267 64.1358 46.728 64.7758 46.728ZM67.9753 61.32C65.3299 61.32 63.2179 60.36 61.6393 58.44C60.0606 56.52 59.2713 54.0027 59.2713 50.888C59.2713 47.4747 60.0606 44.2533 61.6393 41.224C63.2179 38.152 65.3086 35.6987 67.9113 33.864C70.5566 31.9867 73.3513 31.048 76.2953 31.048C77.2339 31.048 77.8526 31.24 78.1513 31.624C78.4926 31.9653 78.7699 32.6053 78.9833 33.544C79.8793 33.3733 80.8179 33.288 81.7993 33.288C83.8899 33.288 84.9353 34.0347 84.9353 35.528C84.9353 36.424 84.6153 38.5573 83.9753 41.928C82.9939 46.8347 82.5033 50.248 82.5033 52.168C82.5033 52.808 82.6526 53.32 82.9513 53.704C83.2926 54.088 83.7193 54.28 84.2313 54.28C85.0419 54.28 86.0233 53.768 87.1753 52.744C88.3273 51.6773 89.8846 49.9707 91.8473 47.624C92.3593 47.0267 92.9353 46.728 93.5753 46.728C94.1299 46.728 94.5566 46.984 94.8553 47.496C95.1966 48.008 95.3673 48.712 95.3673 49.608C95.3673 51.3147 94.9619 52.6373 94.1513 53.576C92.4019 55.752 90.5459 57.5867 88.5833 59.08C86.6206 60.5733 84.7219 61.32 82.8873 61.32C81.4793 61.32 80.1779 60.8507 78.9833 59.912C77.8313 58.9307 76.9566 57.608 76.3593 55.944C74.1406 59.528 71.3459 61.32 67.9753 61.32ZM70.2793 54.856C71.2179 54.856 72.1139 54.3013 72.9673 53.192C73.8206 52.0827 74.4393 50.6107 74.8233 48.776L77.1913 37C75.3993 37.0427 73.7353 37.7253 72.1993 39.048C70.7059 40.328 69.5113 42.0347 68.6153 44.168C67.7193 46.3013 67.2713 48.5627 67.2713 50.952C67.2713 52.2747 67.5273 53.256 68.0393 53.896C68.5939 54.536 69.3406 54.856 70.2793 54.856ZM114.422 46.728C114.976 46.728 115.403 46.984 115.702 47.496C116.043 48.008 116.214 48.712 116.214 49.608C116.214 51.3147 115.808 52.6373 114.998 53.576C113.163 55.8373 111.158 57.6933 108.982 59.144C106.848 60.5947 104.416 61.32 101.686 61.32C97.9311 61.32 95.1364 59.6133 93.3018 56.2C91.5098 52.7867 90.6138 48.3707 90.6138 42.952C90.6138 37.7467 91.2751 31.816 92.5978 25.16C93.9631 18.504 95.9471 12.7867 98.5498 8.008C101.195 3.22933 104.331 0.839996 107.958 0.839996C110.006 0.839996 111.606 1.8 112.758 3.72C113.952 5.59733 114.55 8.30667 114.55 11.848C114.55 16.9253 113.142 22.8133 110.326 29.512C107.51 36.2107 103.691 42.8453 98.8698 49.416C99.1684 51.1653 99.6591 52.424 100.342 53.192C101.024 53.9173 101.92 54.28 103.03 54.28C104.779 54.28 106.315 53.7893 107.638 52.808C108.96 51.784 110.646 50.056 112.694 47.624C113.206 47.0267 113.782 46.728 114.422 46.728ZM106.55 7.176C105.568 7.176 104.459 8.94667 103.222 12.488C101.984 16.0293 100.896 20.424 99.9578 25.672C99.0191 30.92 98.5071 35.9547 98.4218 40.776C101.451 35.784 103.862 30.792 105.654 25.8C107.446 20.7653 108.342 16.1787 108.342 12.04C108.342 8.79733 107.744 7.176 106.55 7.176ZM139.585 46.728C140.139 46.728 140.566 46.984 140.865 47.496C141.206 48.008 141.377 48.712 141.377 49.608C141.377 51.3147 140.971 52.6373 140.161 53.576C138.582 55.496 136.342 57.2667 133.441 58.888C130.582 60.5093 127.51 61.32 124.225 61.32C119.745 61.32 116.267 60.104 113.793 57.672C111.318 55.24 110.081 51.912 110.081 47.688C110.081 44.744 110.699 42.0133 111.937 39.496C113.174 36.936 114.881 34.9093 117.057 33.416C119.275 31.9227 121.771 31.176 124.545 31.176C127.019 31.176 129.003 31.9227 130.497 33.416C131.99 34.8667 132.737 36.8507 132.737 39.368C132.737 42.312 131.67 44.8507 129.537 46.984C127.446 49.0747 123.883 50.7387 118.849 51.976C119.915 53.9387 121.942 54.92 124.929 54.92C126.849 54.92 129.025 54.2587 131.457 52.936C133.931 51.5707 136.065 49.8 137.857 47.624C138.369 47.0267 138.945 46.728 139.585 46.728ZM123.457 37.448C121.878 37.448 120.534 38.3653 119.425 40.2C118.358 42.0347 117.825 44.2533 117.825 46.856V46.984C120.342 46.3867 122.326 45.4907 123.777 44.296C125.227 43.1013 125.953 41.7147 125.953 40.136C125.953 39.3253 125.718 38.6853 125.249 38.216C124.822 37.704 124.225 37.448 123.457 37.448ZM140.71 61.32C139.088 61.32 137.936 60.4667 137.254 58.76C136.614 57.0533 136.294 54.3227 136.294 50.568C136.294 45.0213 137.083 39.752 138.662 34.76C139.046 33.5227 139.664 32.6267 140.518 32.072C141.414 31.4747 142.651 31.176 144.23 31.176C145.083 31.176 145.68 31.2827 146.022 31.496C146.363 31.7093 146.534 32.1147 146.534 32.712C146.534 33.3947 146.214 34.9307 145.574 37.32C145.147 39.0267 144.806 40.52 144.55 41.8C144.294 43.08 144.08 44.6587 143.91 46.536C145.318 42.8667 146.896 39.88 148.646 37.576C150.395 35.272 152.102 33.6293 153.766 32.648C155.472 31.6667 157.03 31.176 158.438 31.176C161.211 31.176 162.598 32.5627 162.598 35.336C162.598 37 162.128 40.008 161.19 44.36C160.379 48.072 159.974 50.5253 159.974 51.72C159.974 53.4267 160.592 54.28 161.83 54.28C162.683 54.28 163.686 53.768 164.838 52.744C166.032 51.6773 167.611 49.9707 169.574 47.624C170.086 47.0267 170.662 46.728 171.302 46.728C171.856 46.728 172.283 46.984 172.582 47.496C172.923 48.008 173.094 48.712 173.094 49.608C173.094 51.3147 172.688 52.6373 171.878 53.576C170.043 55.8373 168.059 57.6933 165.926 59.144C163.835 60.5947 161.446 61.32 158.758 61.32C156.582 61.32 154.939 60.7013 153.83 59.464C152.72 58.184 152.166 56.3493 152.166 53.96C152.166 52.7653 152.464 50.632 153.062 47.56C153.616 44.872 153.894 43.016 153.894 41.992C153.894 41.3093 153.659 40.968 153.19 40.968C152.635 40.968 151.846 41.6933 150.822 43.144C149.84 44.552 148.816 46.4293 147.75 48.776C146.726 51.1227 145.894 53.5973 145.254 56.2C144.784 58.2053 144.23 59.5707 143.59 60.296C142.992 60.9787 142.032 61.32 140.71 61.32ZM204.268 46.728C204.822 46.728 205.249 46.984 205.548 47.496C205.889 48.008 206.06 48.712 206.06 49.608C206.06 51.3147 205.654 52.6373 204.844 53.576C203.094 55.7093 201.174 57.544 199.084 59.08C196.993 60.5733 194.924 61.32 192.876 61.32C189.633 61.32 187.158 59.4213 185.452 55.624C183.66 57.8853 182.081 59.4 180.716 60.168C179.393 60.936 177.836 61.32 176.044 61.32C173.441 61.32 171.286 60.36 169.58 58.44C167.916 56.4773 167.084 53.9387 167.084 50.824C167.084 47.4107 167.809 44.2533 169.26 41.352C170.71 38.408 172.694 36.0187 175.212 34.184C177.772 32.3067 180.63 31.1973 183.788 30.856C184.598 22.5787 186.134 15.5173 188.396 9.672C190.7 3.784 193.708 0.839996 197.42 0.839996C199.254 0.839996 200.769 1.672 201.964 3.336C203.201 5 203.82 7.51733 203.82 10.888C203.82 15.6667 202.646 21.256 200.3 27.656C197.953 34.056 194.817 40.6267 190.892 47.368C191.062 49.8427 191.425 51.6133 191.98 52.68C192.577 53.7467 193.324 54.28 194.22 54.28C195.372 54.28 196.545 53.768 197.74 52.744C198.934 51.72 200.534 50.0133 202.54 47.624C203.052 47.0267 203.628 46.728 204.268 46.728ZM196.716 7.112C195.905 7.112 195.094 8.56266 194.284 11.464C193.473 14.3227 192.769 18.0773 192.172 22.728C191.617 27.3787 191.212 32.2427 190.956 37.32C195.734 26.9093 198.124 18.5467 198.124 12.232C198.124 10.6107 197.974 9.352 197.676 8.456C197.42 7.56 197.1 7.112 196.716 7.112ZM178.284 54.856C179.094 54.856 179.905 54.536 180.716 53.896C181.526 53.2133 182.55 51.976 183.788 50.184C183.361 47.88 183.148 45.2987 183.148 42.44C183.148 41.416 183.19 39.752 183.276 37.448C180.929 38.1733 178.966 39.752 177.388 42.184C175.852 44.5733 175.084 47.24 175.084 50.184C175.084 53.2987 176.15 54.856 178.284 54.856ZM208.1 61.32C205.455 61.32 203.343 60.36 201.764 58.44C200.186 56.52 199.396 54.0027 199.396 50.888C199.396 47.4747 200.186 44.2533 201.764 41.224C203.343 38.152 205.434 35.6987 208.036 33.864C210.682 31.9867 213.476 31.048 216.42 31.048C217.359 31.048 217.978 31.24 218.276 31.624C218.618 31.9653 218.895 32.6053 219.108 33.544C220.004 33.3733 220.943 33.288 221.924 33.288C224.015 33.288 225.06 34.0347 225.06 35.528C225.06 36.424 224.74 38.5573 224.1 41.928C223.119 46.8347 222.628 50.248 222.628 52.168C222.628 52.808 222.778 53.32 223.076 53.704C223.418 54.088 223.844 54.28 224.356 54.28C225.167 54.28 226.148 53.768 227.3 52.744C228.452 51.6773 230.01 49.9707 231.972 47.624C232.484 47.0267 233.06 46.728 233.7 46.728C234.255 46.728 234.682 46.984 234.98 47.496C235.322 48.008 235.492 48.712 235.492 49.608C235.492 51.3147 235.087 52.6373 234.276 53.576C232.527 55.752 230.671 57.5867 228.708 59.08C226.746 60.5733 224.847 61.32 223.012 61.32C221.604 61.32 220.303 60.8507 219.108 59.912C217.956 58.9307 217.082 57.608 216.484 55.944C214.266 59.528 211.471 61.32 208.1 61.32ZM210.404 54.856C211.343 54.856 212.239 54.3013 213.092 53.192C213.946 52.0827 214.564 50.6107 214.948 48.776L217.316 37C215.524 37.0427 213.86 37.7253 212.324 39.048C210.831 40.328 209.636 42.0347 208.74 44.168C207.844 46.3013 207.396 48.5627 207.396 50.952C207.396 52.2747 207.652 53.256 208.164 53.896C208.719 54.536 209.466 54.856 210.404 54.856ZM234.835 61.32C233.213 61.32 232.061 60.4667 231.379 58.76C230.739 57.0533 230.419 54.3227 230.419 50.568C230.419 45.0213 231.208 39.752 232.787 34.76C233.171 33.5227 233.789 32.6267 234.643 32.072C235.539 31.4747 236.776 31.176 238.355 31.176C239.208 31.176 239.805 31.2827 240.147 31.496C240.488 31.7093 240.659 32.1147 240.659 32.712C240.659 33.3947 240.339 34.9307 239.699 37.32C239.272 39.0267 238.931 40.52 238.675 41.8C238.419 43.08 238.205 44.6587 238.035 46.536C239.443 42.8667 241.021 39.88 242.771 37.576C244.52 35.272 246.227 33.6293 247.891 32.648C249.597 31.6667 251.155 31.176 252.563 31.176C255.336 31.176 256.723 32.5627 256.723 35.336C256.723 35.8907 256.531 37.2347 256.147 39.368C255.805 41.0747 255.635 42.1413 255.635 42.568C255.635 44.0613 256.168 44.808 257.235 44.808C258.429 44.808 259.965 43.8693 261.843 41.992C262.397 41.4373 262.973 41.16 263.571 41.16C264.125 41.16 264.552 41.416 264.851 41.928C265.192 42.3973 265.363 43.0373 265.363 43.848C265.363 45.4267 264.936 46.664 264.083 47.56C262.888 48.7973 261.48 49.864 259.859 50.76C258.28 51.6133 256.595 52.04 254.803 52.04C252.541 52.04 250.813 51.464 249.619 50.312C248.467 49.16 247.891 47.6027 247.891 45.64C247.891 45 247.955 44.36 248.083 43.72C248.168 42.8667 248.211 42.2907 248.211 41.992C248.211 41.3093 247.976 40.968 247.507 40.968C246.867 40.968 246.013 41.6933 244.947 43.144C243.923 44.552 242.899 46.4293 241.875 48.776C240.851 51.1227 240.019 53.5973 239.379 56.2C238.909 58.2053 238.355 59.5707 237.715 60.296C237.117 60.9787 236.157 61.32 234.835 61.32ZM266.776 61.32C264.344 61.32 262.36 60.36 260.824 58.44C259.33 56.52 258.584 54.0027 258.584 50.888C258.584 47.4747 259.373 44.2533 260.952 41.224C262.53 38.152 264.621 35.6987 267.224 33.864C269.869 31.9867 272.664 31.048 275.608 31.048C276.546 31.048 277.165 31.24 277.464 31.624C277.805 31.9653 278.082 32.6053 278.296 33.544C279.106 33.3733 280.002 33.288 280.984 33.288C282.008 33.288 282.797 33.544 283.352 34.056C283.906 34.568 284.184 35.2933 284.184 36.232C284.184 37.2133 283.97 38.92 283.544 41.352C283.074 43.9547 282.712 46.4507 282.456 48.84C282.2 51.1867 282.072 53.832 282.072 56.776C282.072 58.3973 281.73 59.5707 281.048 60.296C280.408 60.9787 279.341 61.32 277.848 61.32C276.397 61.32 275.309 60.9787 274.584 60.296C273.901 59.5707 273.56 58.4187 273.56 56.84L273.624 55.816C272.301 59.4853 270.018 61.32 266.776 61.32ZM269.272 54.856C270.466 54.856 271.554 54.024 272.536 52.36C273.517 50.696 274.392 47.7307 275.16 43.464L276.376 37C274.626 37.0427 273.005 37.7253 271.512 39.048C270.018 40.328 268.824 42.0347 267.928 44.168C267.032 46.3013 266.584 48.5627 266.584 50.952C266.584 52.232 266.818 53.2133 267.288 53.896C267.8 54.536 268.461 54.856 269.272 54.856Z" fill="current"/>
</svg>
